# xmcd
#
# Track frame offsets:
# 183
# 21383
# 35408
# 57583
# 76708
# 99408
# 123970
# 143533
# 164733
# 187720
# 210633
# 227283
#
# Disc length: 3244 seconds
#
#
# Revision: 0
# Processed by: cddbd v1.4PL0 Copyright (c) Steve Scherf et al.
# Submitted via: FreeRIP 2.00 
#
DISCID=910caa0c
DTITLE=Miriam Makeba - Collection
DYEAR=1990
DGENRE=Pop
TTITLE0=A Promise
TTITLE1=La Guinee Guine
TTITLE2=The Lion Cries
TTITLE3=Mama
TTITLE4=Samba
TTITLE5=Iyaguduza
TTITLE6=Chicken
TTITLE7=Sabelani
TTITLE8=African Convention
TTITLE9=Ngoma Kurilla
TTITLE10=Forbidden Games
TTITLE11=Jolionkomo
EXTD=
EXTT0=
EXTT1=
EXTT2=
EXTT3=
EXTT4=
EXTT5=
EXTT6=
EXTT7=
EXTT8=
EXTT9=
EXTT10=
EXTT11=
PLAYORDER=
